<svg xmlns="http://www.w3.org/2000/svg" width="760" height="420" viewBox="0 0 760 420" font-family="ui-monospace, SFMono-Regular, Menlo, Consolas, monospace" font-size="13">
  <rect width="760" height="420" rx="10" fill="#0d1117"/>
  <rect width="760" height="34" rx="10" fill="#161b22"/>
  <rect y="20" width="760" height="14" fill="#161b22"/>
  <circle cx="20" cy="17" r="6" fill="#ff5f56"/>
  <circle cx="40" cy="17" r="6" fill="#ffbd2e"/>
  <circle cx="60" cy="17" r="6" fill="#27c93f"/>
  <text x="380" y="21" fill="#8b949e" text-anchor="middle">skepsis — audit</text>

  <text x="18" y="62" fill="#c9d1d9"><tspan fill="#58a6ff">$</tspan> skepsis scan examples/vulnerable-canlib --panel anthropic,openai,mock</text>

  <text x="18" y="92" fill="#8b949e">Skepsis audit — examples/vulnerable-canlib</text>
  <text x="18" y="112" fill="#c9d1d9">  Rules run   <tspan fill="#8b949e">8</tspan>    Candidates <tspan fill="#8b949e">5</tspan>    Confirmed <tspan fill="#f0f6fc" font-weight="bold">3</tspan></text>

  <!-- Critical finding card -->
  <rect x="18" y="130" width="724" height="66" rx="6" fill="#161b22" stroke="#f85149" stroke-width="1"/>
  <rect x="18" y="130" width="88" height="20" rx="6" fill="#f85149"/>
  <text x="30" y="144" fill="#0d1117" font-weight="bold" font-size="11">CRITICAL</text>
  <text x="116" y="145" fill="#f0f6fc" font-weight="bold">memcpy with non-constant length</text>
  <text x="612" y="145" fill="#8b949e" font-size="11">SKEP-UF01 · CWE-787</text>
  <text x="30" y="167" fill="#8b949e" font-size="12">canparse.c:23  tainted=<tspan fill="#c9d1d9">len</tspan></text>
  <text x="30" y="186" fill="#c9d1d9" font-size="12">consensus <tspan fill="#3fb950">CONFIRMED at 91%</tspan>  <tspan fill="#8b949e">[reach=yes(88%), impact=yes(94%), refute=bug(90%)]</tspan></text>

  <!-- High finding card -->
  <rect x="18" y="206" width="724" height="66" rx="6" fill="#161b22" stroke="#db6d28" stroke-width="1"/>
  <rect x="18" y="206" width="52" height="20" rx="6" fill="#db6d28"/>
  <text x="30" y="220" fill="#0d1117" font-weight="bold" font-size="11">HIGH</text>
  <text x="80" y="221" fill="#f0f6fc" font-weight="bold">Non-literal format string</text>
  <text x="612" y="221" fill="#8b949e" font-size="11">SKEP-FS01 · CWE-134</text>
  <text x="30" y="243" fill="#8b949e" font-size="12">canparse.c:46  tainted=<tspan fill="#c9d1d9">dtc_text</tspan></text>
  <text x="30" y="262" fill="#c9d1d9" font-size="12">consensus <tspan fill="#3fb950">CONFIRMED at 94%</tspan>  <tspan fill="#8b949e">[reach=yes(92%), impact=yes(95%), refute=bug(93%)]</tspan></text>

  <!-- Medium finding card -->
  <rect x="18" y="282" width="724" height="66" rx="6" fill="#161b22" stroke="#d29922" stroke-width="1"/>
  <rect x="18" y="282" width="76" height="20" rx="6" fill="#d29922"/>
  <text x="30" y="296" fill="#0d1117" font-weight="bold" font-size="11">MEDIUM</text>
  <text x="104" y="297" fill="#f0f6fc" font-weight="bold">Subtraction on an unsigned length</text>
  <text x="612" y="297" fill="#8b949e" font-size="11">SKEP-IU01 · CWE-191</text>
  <text x="30" y="319" fill="#8b949e" font-size="12">canparse.c:33  tainted=<tspan fill="#c9d1d9">dlc</tspan></text>
  <text x="30" y="338" fill="#c9d1d9" font-size="12">consensus <tspan fill="#3fb950">CONFIRMED at 78%</tspan>  <tspan fill="#8b949e">[reach=yes(80%), impact=yes(72%), refute=bug(82%)]</tspan></text>

  <text x="18" y="378" fill="#8b949e" font-size="12">2 candidates rejected by the panel (guarded / unreachable).</text>
  <text x="18" y="400" fill="#c9d1d9"><tspan fill="#58a6ff">$</tspan> <tspan fill="#3fb950">▍</tspan></text>
</svg>
